<svg width="66" height="62" viewBox="0 0 66 62" fill="none" xmlns="http://www.w3.org/2000/svg">
<path d="M21.8923 62V18.047H33.1623V26.741L32.5183 24.809C33.538 22.1793 35.1748 20.2473 37.4288 19.013C39.7365 17.725 42.4198 17.081 45.4788 17.081C48.8062 17.081 51.7042 17.7787 54.1728 19.174C56.6952 20.5693 58.654 22.5282 60.0493 25.0505C61.4447 27.5192 62.1423 30.4172 62.1423 33.7445V62H50.0673V36.3205C50.0673 34.6032 49.7185 33.1273 49.0208 31.893C48.3768 30.6587 47.4377 29.6927 46.2033 28.995C45.0227 28.2973 43.6273 27.9485 42.0173 27.9485C40.461 27.9485 39.0657 28.2973 37.8313 28.995C36.597 29.6927 35.631 30.6587 34.9333 31.893C34.2893 33.1273 33.9673 34.6032 33.9673 36.3205V62H21.8923Z" fill="white"/>
<line x1="6.85" y1="18" x2="6.85" y2="62" stroke="white" stroke-width="11.7"/>
<circle cx="6.75" cy="6.75" r="6.75" fill="white"/>
</svg>
